<svg xmlns="http://www.w3.org/2000/svg" viewBox="0 0 1200 630" width="1200" height="630" role="img" aria-label="Budget Chicken Rice Bowl recipe card — MyFitWealthJourney">
  <defs>
    <linearGradient id="bg_budget_chicken_rice_bowl" x1="0%" y1="0%" x2="100%" y2="100%">
      <stop offset="0%" stop-color="#1B4332"/>
      <stop offset="60%" stop-color="#2D6A4F"/>
      <stop offset="100%" stop-color="#1B4332"/>
    </linearGradient>
  </defs>
  <rect width="1200" height="630" fill="url(#bg_budget_chicken_rice_bowl)"/>
  <rect width="1200" height="630" fill="white" fill-opacity="0.02"/>
  <circle cx="960" cy="315" r="220" fill="#F59E0B" fill-opacity="0.12"/>
  <circle cx="960" cy="315" r="175" fill="#F59E0B" fill-opacity="0.10"/>
  <circle cx="960" cy="315" r="120" fill="#F59E0B" fill-opacity="0.08"/>
  <circle cx="900" cy="270" r="22" fill="#F59E0B" fill-opacity="0.60"/>
  <circle cx="960" cy="250" r="18" fill="#FCD34D" fill-opacity="0.50"/>
  <circle cx="1020" cy="275" r="20" fill="#F59E0B" fill-opacity="0.55"/>
  <circle cx="880" cy="330" r="16" fill="#FCD34D" fill-opacity="0.45"/>
  <circle cx="940" cy="315" r="25" fill="#F59E0B" fill-opacity="0.65"/>
  <circle cx="1005" cy="340" r="19" fill="#FCD34D" fill-opacity="0.50"/>
  <circle cx="915" cy="375" r="21" fill="#F59E0B" fill-opacity="0.60"/>
  <circle cx="975" cy="385" r="17" fill="#FCD34D" fill-opacity="0.45"/>
  <circle cx="1030" cy="360" r="20" fill="#F59E0B" fill-opacity="0.50"/>
  <rect x="930" y="293" width="7" height="12" rx="3" fill="white" fill-opacity="0.50" transform="rotate(10 933 299)"/>
  <rect x="968" y="306" width="7" height="12" rx="3" fill="white" fill-opacity="0.40" transform="rotate(-15 971 312)"/>
  <rect x="1000" y="288" width="7" height="12" rx="3" fill="white" fill-opacity="0.45" transform="rotate(25 1003 294)"/>
  <rect x="0" y="0" width="6" height="630" fill="#F59E0B" fill-opacity="0.85"/>
  <text x="84" y="58" font-family="-apple-system, BlinkMacSystemFont, 'Segoe UI', Helvetica, Arial, sans-serif" font-size="20" fill="white" fill-opacity="0.55" font-weight="500" letter-spacing="0.3">MyFitWealthJourney</text>
  <rect x="84" y="76" width="180" height="34" rx="17" fill="#D97706"/>
  <text x="174" y="99" text-anchor="middle" font-family="-apple-system, BlinkMacSystemFont, 'Segoe UI', Helvetica, Arial, sans-serif" font-size="12" fill="white" font-weight="700" letter-spacing="1.8">HIGH PROTEIN</text>
  <text x="84" y="208" font-family="-apple-system, BlinkMacSystemFont, 'Segoe UI', Helvetica, Arial, sans-serif" font-size="70" fill="white" font-weight="800" letter-spacing="-1.5">Budget Chicken</text>
  <text x="84" y="290" font-family="-apple-system, BlinkMacSystemFont, 'Segoe UI', Helvetica, Arial, sans-serif" font-size="70" fill="white" font-weight="800" letter-spacing="-1.5">Rice Bowl</text>
  <rect x="84" y="318" width="235" height="54" rx="10" fill="#F4A261"/>
  <text x="201" y="352" text-anchor="middle" font-family="-apple-system, BlinkMacSystemFont, 'Segoe UI', Helvetica, Arial, sans-serif" font-size="27" fill="white" font-weight="800">$1.80/serving</text>
  <text x="84" y="424" font-family="-apple-system, BlinkMacSystemFont, 'Segoe UI', Helvetica, Arial, sans-serif" font-size="21" fill="white" fill-opacity="0.82" font-weight="400">35 min  ·  33g protein  ·  Feeds 4  ·  Meal prep friendly</text>
  <rect x="0" y="578" width="1200" height="52" fill="#000000" fill-opacity="0.25"/>
  <text x="84" y="611" font-family="-apple-system, BlinkMacSystemFont, 'Segoe UI', Helvetica, Arial, sans-serif" font-size="16" fill="white" fill-opacity="0.50" font-weight="400">myfitwealthjourney.com — Healthy Living on a Real Budget</text>
</svg>